<svg width="32" height="30" viewBox="0 0 32 30" fill="none" xmlns="http://www.w3.org/2000/svg">
<path d="M30.9597 27.0313C29.0316 23.6474 26.021 21.0108 22.4125 19.5458C24.207 18.1999 25.5325 16.3235 26.2013 14.1825C26.8702 12.0414 26.8484 9.74411 26.139 7.61611C25.4297 5.4881 24.0688 3.63721 22.2491 2.32564C20.4293 1.01406 18.2431 0.308289 16 0.308289C13.7569 0.308289 11.5706 1.01406 9.75088 2.32564C7.93117 3.63721 6.57025 5.4881 5.86092 7.61611C5.15158 9.74411 5.12978 12.0414 5.79861 14.1825C6.46743 16.3235 7.79297 18.1999 9.58747 19.5458C5.97892 21.0108 2.96831 23.6474 1.04028 27.0313C0.920815 27.2234 0.841191 27.4375 0.806143 27.661C0.771095 27.8845 0.781339 28.1127 0.836266 28.3322C0.891193 28.5516 0.989683 28.7578 1.12588 28.9384C1.26207 29.119 1.4332 29.2704 1.62907 29.3836C1.82495 29.4968 2.04158 29.5694 2.26608 29.5972C2.49059 29.625 2.71839 29.6073 2.93593 29.5453C3.15348 29.4833 3.35634 29.3781 3.53245 29.2361C3.70855 29.0942 3.85431 28.9182 3.96106 28.7188C6.50919 24.3144 11.0092 21.6875 16 21.6875C20.9907 21.6875 25.4907 24.3158 28.0389 28.7188C28.2702 29.0908 28.6372 29.3582 29.0621 29.4646C29.4871 29.5709 29.9367 29.5079 30.3161 29.2887C30.6954 29.0696 30.9746 28.7115 31.0947 28.2902C31.2148 27.869 31.1664 27.4175 30.9597 27.0313ZM8.68747 11C8.68747 9.55373 9.11634 8.13994 9.91985 6.9374C10.7234 5.73487 11.8654 4.7976 13.2016 4.24414C14.5378 3.69067 16.0081 3.54586 17.4266 3.82802C18.8451 4.11017 20.148 4.80662 21.1707 5.82929C22.1934 6.85196 22.8898 8.15492 23.172 9.57341C23.4541 10.9919 23.3093 12.4622 22.7558 13.7984C22.2024 15.1346 21.2651 16.2766 20.0626 17.0801C18.86 17.8836 17.4462 18.3125 16 18.3125C14.0613 18.3103 12.2026 17.5391 10.8317 16.1683C9.46084 14.7974 8.6897 12.9387 8.68747 11Z" fill="white"/>
</svg>
