<svg width="40" height="40" viewBox="0 0 40 40" fill="none" xmlns="http://www.w3.org/2000/svg">
<g clip-path="url(#clip0_418_139)">
<path d="M21.604 0.078125C21.6894 0.130075 21.7315 0.218134 21.7881 0.228717C23.3896 0.528302 24.7882 1.23562 26.0544 2.25481C27.5085 3.42535 28.4921 4.91761 29.0927 6.65511C29.334 7.35292 29.4128 8.11112 29.5267 8.84784C29.7668 10.4011 29.4596 11.8863 28.9103 13.3345C28.5292 14.3393 27.9661 15.2268 27.28 16.0575C26.4261 17.0913 25.3854 17.8739 24.2092 18.4706C23.2615 18.9515 22.2443 19.2468 21.1779 19.3814C19.1179 19.6415 17.1647 19.3181 15.3289 18.3573C13.9631 17.6424 12.8409 16.6456 11.9432 15.379C11.2245 14.3651 10.7083 13.2621 10.4226 12.0695C10.163 10.9864 10.0985 9.88119 10.2154 8.75186C10.3455 7.49483 10.6693 6.30435 11.2654 5.21498C12.6519 2.68099 14.7501 1.0189 17.5739 0.311178C17.7774 0.260195 17.976 0.189922 18.1509 0.103372C19.2725 0.0781252 20.4199 0.0781252 21.604 0.078125Z" fill="#977FBB"/>
<path d="M15.896 40.0781C15.8081 40.0262 15.7601 39.9329 15.7051 39.9287C14.9102 39.8673 14.1121 39.8407 13.3193 39.7608C11.7623 39.6038 10.1863 39.5211 8.68936 39.0243C7.13301 38.5078 5.95336 37.4841 5.08112 36.103C4.94623 35.8894 4.8295 35.6643 4.73328 35.4189C6.51927 35.7452 8.28558 35.9973 10.0851 35.8607C11.0148 35.7901 11.9505 35.7561 12.8716 35.6232C15.9425 35.1803 18.762 34.055 21.3585 32.3691C23.3563 31.072 25.0891 29.475 26.5612 27.6054C27.9118 25.8902 28.9969 24.017 29.7637 21.9666C30.9864 22.0557 32.1668 22.2493 33.2354 22.9389C34.5257 23.7717 35.4156 24.8889 35.8478 26.3525C35.9903 26.8349 36.0371 27.3498 36.0885 27.8539C36.1614 28.5691 36.2647 29.2907 36.2356 30.0047C36.1815 31.3363 36.111 32.6748 35.915 33.9907C35.7589 35.0385 35.2327 35.979 34.5568 36.8012C33.6841 37.8627 32.6267 38.6987 31.281 39.0666C30.5017 39.2796 29.696 39.4108 28.8944 39.5239C27.7695 39.6827 26.6375 39.7913 25.5084 39.9196C25.195 39.9553 24.8811 39.985 24.5884 40.0478C21.7171 40.0781 18.8249 40.0781 15.896 40.0781Z" fill="#7455A5"/>
<path d="M29.728 21.961C28.9969 24.017 27.9118 25.8902 26.5612 27.6054C25.0891 29.475 23.3563 31.072 21.3585 32.3691C18.762 34.055 15.9425 35.1803 12.8716 35.6232C11.9505 35.7561 11.0148 35.7901 10.0851 35.8607C8.28557 35.9973 6.51926 35.7452 4.73135 35.3911C4.32615 34.6722 4.11012 33.913 4.05984 33.1032C4.02172 32.4892 3.94415 31.8775 3.91213 31.2633C3.89756 30.984 3.95148 30.7011 3.9726 30.4197C3.97938 30.3294 3.98375 30.2387 3.9839 30.1482C3.98503 29.4697 3.96301 28.7904 3.98926 28.1129C4.05834 26.3308 4.67098 24.7734 6.01494 23.565C6.90883 22.7613 7.95963 22.2446 9.16886 22.113C9.85767 22.0381 10.5502 21.9809 11.2425 21.9578C13.1966 21.8925 15.1512 21.8375 17.106 21.8C19.1699 21.7603 21.2343 21.7324 23.2986 21.7251C24.3864 21.7212 25.4748 21.7613 26.5622 21.8012C27.606 21.8394 28.6489 21.903 29.728 21.961Z" fill="#977FBB"/>
</g>
<defs>
<clipPath id="clip0_418_139">
<rect width="40" height="40" fill="white"/>
</clipPath>
</defs>
</svg>
